<svg width="128" height="128" viewBox="0 0 128 128" fill="none" xmlns="http://www.w3.org/2000/svg">
  <rect width="128" height="128" rx="30" fill="#0C3431"/>
  <path d="M24 35C24 26.1634 31.1634 19 40 19H88C96.8366 19 104 26.1634 104 35V66C104 74.8366 96.8366 82 88 82H68L52 99V82H40C31.1634 82 24 74.8366 24 66V35Z" fill="#EAF7F5"/>
  <path d="M52 62C52 72.4934 60.5066 81 71 81H72C82.4934 81 91 72.4934 91 62V45C91 41.6863 88.3137 39 85 39C81.6863 39 79 41.6863 79 45V58" stroke="#0C3431" stroke-width="6" stroke-linecap="round"/>
  <path d="M79 57V37C79 33.6863 76.3137 31 73 31C69.6863 31 67 33.6863 67 37V58" stroke="#0C3431" stroke-width="6" stroke-linecap="round"/>
  <path d="M67 59V42C67 38.6863 64.3137 36 61 36C57.6863 36 55 38.6863 55 42V62" stroke="#0C3431" stroke-width="6" stroke-linecap="round"/>
  <path d="M55 62L50 57C47.6569 54.6569 43.8579 54.6569 41.5147 57C39.1716 59.3431 39.1716 63.1421 41.5147 65.4853L54 78" stroke="#0C3431" stroke-width="6" stroke-linecap="round"/>
  <circle cx="42" cy="42" r="5" fill="#6ED5C8"/>
  <circle cx="52" cy="33" r="3.5" fill="#F6C85F"/>
  <path d="M35 105C51.5 116 75.5 116 93 105" stroke="#6ED5C8" stroke-width="6" stroke-linecap="round"/>
</svg>
