<svg width="96" height="96" viewBox="0 0 96 96" fill="none" xmlns="http://www.w3.org/2000/svg">
  <rect width="96" height="96" rx="24" fill="#103D3A"/>
  <path d="M30 56C30 66.4934 38.5066 75 49 75H50C60.4934 75 69 66.4934 69 56V35C69 31.6863 66.3137 29 63 29C59.6863 29 57 31.6863 57 35V50" stroke="#EAF7F5" stroke-width="6" stroke-linecap="round"/>
  <path d="M57 48V28C57 24.6863 54.3137 22 51 22C47.6863 22 45 24.6863 45 28V48" stroke="#EAF7F5" stroke-width="6" stroke-linecap="round"/>
  <path d="M45 49V32C45 28.6863 42.3137 26 39 26C35.6863 26 33 28.6863 33 32V56" stroke="#EAF7F5" stroke-width="6" stroke-linecap="round"/>
  <path d="M33 56L27 50C24.6569 47.6569 20.8579 47.6569 18.5147 50C16.1716 52.3431 16.1716 56.1421 18.5147 58.4853L32 71" stroke="#EAF7F5" stroke-width="6" stroke-linecap="round"/>
  <circle cx="70" cy="24" r="7" fill="#6ED5C8"/>
  <circle cx="78" cy="38" r="4" fill="#F6C85F"/>
</svg>
