<svg width="128" height="128" viewBox="0 0 128 128" fill="none" xmlns="http://www.w3.org/2000/svg" role="img" aria-labelledby="title desc">
  <title id="title">손말관 로고</title>
  <desc id="desc">영화관 스크린과 필름 프레임을 품은 손 모양 심볼</desc>
  <rect width="128" height="128" rx="30" fill="#0E0D0D"/>
  <rect x="18" y="18" width="92" height="92" rx="24" fill="#1C1A19" stroke="#332E2B" stroke-width="3"/>
  <path d="M36 70C36 83.807 47.193 95 61 95H70C83.807 95 95 83.807 95 70V48C95 43.582 91.418 40 87 40C82.582 40 79 43.582 79 48V65" stroke="#E8472B" stroke-width="7" stroke-linecap="round"/>
  <path d="M79 65V35C79 30.582 75.418 27 71 27C66.582 27 63 30.582 63 35V66" stroke="#E8472B" stroke-width="7" stroke-linecap="round"/>
  <path d="M63 66V42C63 37.582 59.418 34 55 34C50.582 34 47 37.582 47 42V70" stroke="#E8472B" stroke-width="7" stroke-linecap="round"/>
  <path d="M47 70L42 65C38.876 61.876 33.811 61.876 30.686 65C27.562 68.124 27.562 73.189 30.686 76.314L46.5 92.128" stroke="#E8472B" stroke-width="7" stroke-linecap="round"/>
  <rect x="44" y="46" width="38" height="25" rx="6" fill="#F5F1EC"/>
  <rect x="50" y="52" width="26" height="13" rx="3" fill="#0E0D0D"/>
  <path d="M39 28H89" stroke="#9C938A" stroke-width="4" stroke-linecap="round" stroke-dasharray="2 8"/>
  <path d="M37 106H91" stroke="#4FB8A6" stroke-width="5" stroke-linecap="round"/>
</svg>
